<?xml version="1.0" encoding="UTF-8"?><svg xmlns="http://www.w3.org/2000/svg" xmlns:xlink="http://www.w3.org/1999/xlink" clip-rule="evenodd" stroke-miterlimit="4.00" viewBox="0 0 1920 1080"><desc>SVG generated by Keynote</desc><defs></defs><g transform="matrix(1.00, 0.00, -0.00, -1.00, 0.0, 1080.0)"><path d="M 0.0 1080.0 L 1920.0 1080.0 L 1920.0 0.0 L 0.0 0.0 Z M 0.0 1080.0 " fill="#FEFFFF"></path><text xml:space="preserve" font-family="Helvetica" font-size="23.0" fill="#5E5E5E" transform="matrix(1.00, 0.00, -0.00, -1.00, 1590.8, 27.1)">S</text><text xml:space="preserve" font-family="Helvetica" font-size="23.0" fill="#5E5E5E" transform="matrix(1.00, 0.00, -0.00, -1.00, 1606.1, 27.1)">a</text><text xml:space="preserve" font-family="Helvetica" font-size="23.0" fill="#5E5E5E" transform="matrix(1.00, 0.00, -0.00, -1.00, 1618.9, 27.1)">v</text><text xml:space="preserve" font-family="Helvetica" font-size="23.0" fill="#5E5E5E" transform="matrix(1.00, 0.00, -0.00, -1.00, 1630.4, 27.1)">a</text><text xml:space="preserve" font-family="Helvetica" font-size="23.0" fill="#5E5E5E" transform="matrix(1.00, 0.00, -0.00, -1.00, 1643.2, 27.1)">n</text><text xml:space="preserve" font-family="Helvetica" font-size="23.0" fill="#5E5E5E" transform="matrix(1.00, 0.00, -0.00, -1.00, 1656.0, 27.1)">n</text><text xml:space="preserve" font-family="Helvetica" font-size="23.0" fill="#5E5E5E" transform="matrix(1.00, 0.00, -0.00, -1.00, 1668.8, 27.1)">a</text><text xml:space="preserve" font-family="Helvetica" font-size="23.0" fill="#5E5E5E" transform="matrix(1.00, 0.00, -0.00, -1.00, 1681.6, 27.1)">h</text><text xml:space="preserve" font-family="Helvetica" font-size="23.0" fill="#5E5E5E" transform="matrix(1.00, 0.00, -0.00, -1.00, 1694.4, 27.1)"> </text><text xml:space="preserve" font-family="Helvetica" font-size="23.0" fill="#5E5E5E" transform="matrix(1.00, 0.00, -0.00, -1.00, 1700.8, 27.1)">M</text><text xml:space="preserve" font-family="Helvetica" font-size="23.0" fill="#5E5E5E" transform="matrix(1.00, 0.00, -0.00, -1.00, 1720.0, 27.1)">o</text><text xml:space="preserve" font-family="Helvetica" font-size="23.0" fill="#5E5E5E" transform="matrix(1.00, 0.00, -0.00, -1.00, 1732.8, 27.1)">n</text><text xml:space="preserve" font-family="Helvetica" font-size="23.0" fill="#5E5E5E" transform="matrix(1.00, 0.00, -0.00, -1.00, 1745.5, 27.1)">t</text><text xml:space="preserve" font-family="Helvetica" font-size="23.0" fill="#5E5E5E" transform="matrix(1.00, 0.00, -0.00, -1.00, 1751.9, 27.1)">g</text><text xml:space="preserve" font-family="Helvetica" font-size="23.0" fill="#5E5E5E" transform="matrix(1.00, 0.00, -0.00, -1.00, 1764.7, 27.1)">o</text><text xml:space="preserve" font-family="Helvetica" font-size="23.0" fill="#5E5E5E" transform="matrix(1.00, 0.00, -0.00, -1.00, 1777.5, 27.1)">m</text><text xml:space="preserve" font-family="Helvetica" font-size="23.0" fill="#5E5E5E" transform="matrix(1.00, 0.00, -0.00, -1.00, 1796.7, 27.1)">e</text><text xml:space="preserve" font-family="Helvetica" font-size="23.0" fill="#5E5E5E" transform="matrix(1.00, 0.00, -0.00, -1.00, 1809.5, 27.1)">r</text><text xml:space="preserve" font-family="Helvetica" font-size="23.0" fill="#5E5E5E" transform="matrix(1.00, 0.00, -0.00, -1.00, 1817.1, 27.1)">y</text><text xml:space="preserve" font-family="Helvetica" font-size="23.0" fill="#797979" transform="matrix(1.00, 0.00, -0.00, -1.00, 1856.0, 27.0)">1</text><text xml:space="preserve" font-family="Helvetica" font-size="23.0" fill="#797979" transform="matrix(1.00, 0.00, -0.00, -1.00, 1869.0, 27.0)">3</text><text xml:space="preserve" font-family="Helvetica" font-size="65.0" fill="#000000" transform="matrix(1.00, 0.00, -0.00, -1.00, 694.0, 760.0)">I</text><text xml:space="preserve" font-family="Helvetica" font-size="65.0" fill="#000000" transform="matrix(1.00, 0.00, -0.00, -1.00, 715.3, 760.0)">N</text><text xml:space="preserve" font-family="Helvetica" font-size="65.0" fill="#000000" transform="matrix(1.00, 0.00, -0.00, -1.00, 765.5, 760.0)">T</text><text xml:space="preserve" font-family="Helvetica" font-size="65.0" fill="#000000" transform="matrix(1.00, 0.00, -0.00, -1.00, 808.4, 760.0)">E</text><text xml:space="preserve" font-family="Helvetica" font-size="65.0" fill="#000000" transform="matrix(1.00, 0.00, -0.00, -1.00, 855.0, 760.0)">R</text><text xml:space="preserve" font-family="Helvetica" font-size="65.0" fill="#000000" transform="matrix(1.00, 0.00, -0.00, -1.00, 905.2, 760.0)">A</text><text xml:space="preserve" font-family="Helvetica" font-size="65.0" fill="#000000" transform="matrix(1.00, 0.00, -0.00, -1.00, 951.8, 760.0)">C</text><text xml:space="preserve" font-family="Helvetica" font-size="65.0" fill="#000000" transform="matrix(1.00, 0.00, -0.00, -1.00, 1002.0, 760.0)">T</text><text xml:space="preserve" font-family="Helvetica" font-size="65.0" fill="#000000" transform="matrix(1.00, 0.00, -0.00, -1.00, 1043.7, 760.0)"> </text><text xml:space="preserve" font-family="Helvetica" font-size="65.0" fill="#000000" transform="matrix(1.00, 0.00, -0.00, -1.00, 1065.0, 760.0)">W</text><text xml:space="preserve" font-family="Helvetica" font-size="65.0" fill="#000000" transform="matrix(1.00, 0.00, -0.00, -1.00, 1129.6, 760.0)">I</text><text xml:space="preserve" font-family="Helvetica" font-size="65.0" fill="#000000" transform="matrix(1.00, 0.00, -0.00, -1.00, 1150.9, 760.0)">T</text><text xml:space="preserve" font-family="Helvetica" font-size="65.0" fill="#000000" transform="matrix(1.00, 0.00, -0.00, -1.00, 1193.8, 760.0)">H</text><text xml:space="preserve" font-family="Helvetica" font-size="65.0" fill="#000000" transform="matrix(1.00, 0.00, -0.00, -1.00, 1244.0, 760.0)"> </text><text xml:space="preserve" font-family="Avenir-Heavy" font-weight="bold" font-size="58.0" fill="#000000" transform="matrix(1.00, 0.00, -0.00, -1.00, 697.0, 323.0)">a</text><text xml:space="preserve" font-family="Avenir-Heavy" font-weight="bold" font-size="58.0" fill="#000000" transform="matrix(1.00, 0.00, -0.00, -1.00, 728.1, 323.0)">d</text><text xml:space="preserve" font-family="Avenir-Heavy" font-weight="bold" font-size="58.0" fill="#000000" transform="matrix(1.00, 0.00, -0.00, -1.00, 764.7, 323.0)">o</text><text xml:space="preserve" font-family="Avenir-Heavy" font-weight="bold" font-size="58.0" fill="#000000" transform="matrix(1.00, 0.00, -0.00, -1.00, 800.1, 323.0)">b</text><text xml:space="preserve" font-family="Avenir-Heavy" font-weight="bold" font-size="58.0" fill="#000000" transform="matrix(1.00, 0.00, -0.00, -1.00, 836.6, 323.0)">e</text><text xml:space="preserve" font-family="Avenir-Heavy" font-weight="bold" font-size="58.0" fill="#000000" transform="matrix(1.00, 0.00, -0.00, -1.00, 869.9, 323.0)">.</text><text xml:space="preserve" font-family="Avenir-Heavy" font-weight="bold" font-size="58.0" fill="#000000" transform="matrix(1.00, 0.00, -0.00, -1.00, 887.1, 323.0)">l</text><text xml:space="preserve" font-family="Avenir-Heavy" font-weight="bold" font-size="58.0" fill="#000000" transform="matrix(1.00, 0.00, -0.00, -1.00, 902.1, 323.0)">y</text><text xml:space="preserve" font-family="Avenir-Heavy" font-weight="bold" font-size="58.0" fill="#000000" transform="matrix(1.00, 0.00, -0.00, -1.00, 932.2, 323.0)">/</text><text xml:space="preserve" font-family="Avenir-Heavy" font-weight="bold" font-size="58.0" fill="#000000" transform="matrix(1.00, 0.00, -0.00, -1.00, 954.8, 323.0)">2</text><text xml:space="preserve" font-family="Avenir-Heavy" font-weight="bold" font-size="58.0" fill="#000000" transform="matrix(1.00, 0.00, -0.00, -1.00, 989.1, 323.0)">M</text><text xml:space="preserve" font-family="Avenir-Heavy" font-weight="bold" font-size="58.0" fill="#000000" transform="matrix(1.00, 0.00, -0.00, -1.00, 1042.9, 323.0)">D</text><text xml:space="preserve" font-family="Avenir-Heavy" font-weight="bold" font-size="58.0" fill="#000000" transform="matrix(1.00, 0.00, -0.00, -1.00, 1086.9, 323.0)">8</text><text xml:space="preserve" font-family="Avenir-Heavy" font-weight="bold" font-size="58.0" fill="#000000" transform="matrix(1.00, 0.00, -0.00, -1.00, 1121.2, 323.0)">o</text><text xml:space="preserve" font-family="Avenir-Heavy" font-weight="bold" font-size="58.0" fill="#000000" transform="matrix(1.00, 0.00, -0.00, -1.00, 1156.6, 323.0)">a</text><text xml:space="preserve" font-family="Avenir-Heavy" font-weight="bold" font-size="58.0" fill="#000000" transform="matrix(1.00, 0.00, -0.00, -1.00, 1187.7, 323.0)">8</text><g><clipPath id="clip-1188"><path d="M 696.0 315.9 L 1222.0 315.9 L 1222.0 320.8 L 696.0 320.8 Z M 696.0 315.9 "></path></clipPath><g clip-path="url(#clip-1188)"><path d="M 4.0 66.1 L 529.1 66.1 " fill="none" stroke="#000000" stroke-width="2.90" stroke-miterlimit="0.00" transform="matrix(1.00, 0.00, 0.00, -1.00, 693.0, 384.4)"></path></g></g><image xlink:href="../../F3B78DAF-10CC-4512-9733-3D79D53B9869/assets/288A1BD3BDE22D4B6D585616AFFD785C.jpeg" width="614.00" height="227.00" transform="matrix(1.46, 0.00, -0.00, -1.45, 545.0, 705.0)"></image></g></svg>