<?xml version="1.0" encoding="UTF-8"?><svg xmlns="http://www.w3.org/2000/svg" xmlns:xlink="http://www.w3.org/1999/xlink" clip-rule="evenodd" stroke-miterlimit="4.00" viewBox="0 0 1920 1080"><desc>SVG generated by Keynote</desc><defs></defs><g transform="matrix(1.00, 0.00, -0.00, -1.00, 0.0, 1080.0)"><path d="M 0.0 1080.0 L 1920.0 1080.0 L 1920.0 0.0 L 0.0 0.0 Z M 0.0 1080.0 " fill="#FEFFFF"></path><text xml:space="preserve" font-family="Helvetica" font-size="35.0" fill="#000000" transform="matrix(1.00, 0.00, -0.00, -1.00, 82.0, 400.0)">U</text><text xml:space="preserve" font-family="Helvetica" font-size="35.0" fill="#000000" transform="matrix(1.00, 0.00, -0.00, -1.00, 110.1, 400.0)">S</text><text xml:space="preserve" font-family="Helvetica" font-size="35.0" fill="#000000" transform="matrix(1.00, 0.00, -0.00, -1.00, 136.2, 400.0)">E</text><text xml:space="preserve" font-family="Helvetica" font-size="35.0" fill="#000000" transform="matrix(1.00, 0.00, -0.00, -1.00, 162.4, 400.0)">R</text><text xml:space="preserve" font-family="Helvetica" font-size="35.0" fill="#000000" transform="matrix(1.00, 0.00, -0.00, -1.00, 190.5, 400.0)"> </text><text xml:space="preserve" font-family="Helvetica" font-size="35.0" fill="#000000" transform="matrix(1.00, 0.00, -0.00, -1.00, 203.0, 400.0)">E</text><text xml:space="preserve" font-family="Helvetica" font-size="35.0" fill="#000000" transform="matrix(1.00, 0.00, -0.00, -1.00, 229.2, 400.0)">X</text><text xml:space="preserve" font-family="Helvetica" font-size="35.0" fill="#000000" transform="matrix(1.00, 0.00, -0.00, -1.00, 255.3, 400.0)">P</text><text xml:space="preserve" font-family="Helvetica" font-size="35.0" fill="#000000" transform="matrix(1.00, 0.00, -0.00, -1.00, 281.5, 400.0)">E</text><text xml:space="preserve" font-family="Helvetica" font-size="35.0" fill="#000000" transform="matrix(1.00, 0.00, -0.00, -1.00, 307.6, 400.0)">R</text><text xml:space="preserve" font-family="Helvetica" font-size="35.0" fill="#000000" transform="matrix(1.00, 0.00, -0.00, -1.00, 335.7, 400.0)">I</text><text xml:space="preserve" font-family="Helvetica" font-size="35.0" fill="#000000" transform="matrix(1.00, 0.00, -0.00, -1.00, 348.2, 400.0)">E</text><text xml:space="preserve" font-family="Helvetica" font-size="35.0" fill="#000000" transform="matrix(1.00, 0.00, -0.00, -1.00, 374.4, 400.0)">N</text><text xml:space="preserve" font-family="Helvetica" font-size="35.0" fill="#000000" transform="matrix(1.00, 0.00, -0.00, -1.00, 402.5, 400.0)">C</text><text xml:space="preserve" font-family="Helvetica" font-size="35.0" fill="#000000" transform="matrix(1.00, 0.00, -0.00, -1.00, 430.5, 400.0)">E</text><text xml:space="preserve" font-family="Helvetica" font-size="35.0" fill="#000000" transform="matrix(1.00, 0.00, -0.00, -1.00, 456.7, 400.0)"> </text><text xml:space="preserve" font-family="Helvetica" font-size="35.0" fill="#000000" transform="matrix(1.00, 0.00, -0.00, -1.00, 469.2, 400.0)">D</text><text xml:space="preserve" font-family="Helvetica" font-size="35.0" fill="#000000" transform="matrix(1.00, 0.00, -0.00, -1.00, 497.3, 400.0)">E</text><text xml:space="preserve" font-family="Helvetica" font-size="35.0" fill="#000000" transform="matrix(1.00, 0.00, -0.00, -1.00, 523.5, 400.0)">S</text><text xml:space="preserve" font-family="Helvetica" font-size="35.0" fill="#000000" transform="matrix(1.00, 0.00, -0.00, -1.00, 549.6, 400.0)">I</text><text xml:space="preserve" font-family="Helvetica" font-size="35.0" fill="#000000" transform="matrix(1.00, 0.00, -0.00, -1.00, 562.1, 400.0)">G</text><text xml:space="preserve" font-family="Helvetica" font-size="35.0" fill="#000000" transform="matrix(1.00, 0.00, -0.00, -1.00, 592.2, 400.0)">N</text><text xml:space="preserve" font-family="Helvetica" font-size="35.0" fill="#000000" transform="matrix(1.00, 0.00, -0.00, -1.00, 620.3, 400.0)">E</text><text xml:space="preserve" font-family="Helvetica" font-size="35.0" fill="#000000" transform="matrix(1.00, 0.00, -0.00, -1.00, 646.4, 400.0)">R</text><text xml:space="preserve" font-family="Helvetica" font-size="35.0" fill="#000000" transform="matrix(1.00, 0.00, -0.00, -1.00, 674.5, 400.0)"> </text><text xml:space="preserve" font-family="Helvetica" font-size="35.0" fill="#000000" transform="matrix(1.00, 0.00, -0.00, -1.00, 687.0, 400.0)">+</text><text xml:space="preserve" font-family="Helvetica" font-size="35.0" fill="#000000" transform="matrix(1.00, 0.00, -0.00, -1.00, 710.3, 400.0)"> </text><text xml:space="preserve" font-family="Helvetica" font-size="35.0" fill="#000000" transform="matrix(1.00, 0.00, -0.00, -1.00, 722.8, 400.0)">R</text><text xml:space="preserve" font-family="Helvetica" font-size="35.0" fill="#000000" transform="matrix(1.00, 0.00, -0.00, -1.00, 750.9, 400.0)">E</text><text xml:space="preserve" font-family="Helvetica" font-size="35.0" fill="#000000" transform="matrix(1.00, 0.00, -0.00, -1.00, 777.0, 400.0)">S</text><text xml:space="preserve" font-family="Helvetica" font-size="35.0" fill="#000000" transform="matrix(1.00, 0.00, -0.00, -1.00, 803.2, 400.0)">E</text><text xml:space="preserve" font-family="Helvetica" font-size="35.0" fill="#000000" transform="matrix(1.00, 0.00, -0.00, -1.00, 829.3, 400.0)">A</text><text xml:space="preserve" font-family="Helvetica" font-size="35.0" fill="#000000" transform="matrix(1.00, 0.00, -0.00, -1.00, 855.5, 400.0)">R</text><text xml:space="preserve" font-family="Helvetica" font-size="35.0" fill="#000000" transform="matrix(1.00, 0.00, -0.00, -1.00, 883.6, 400.0)">C</text><text xml:space="preserve" font-family="Helvetica" font-size="35.0" fill="#000000" transform="matrix(1.00, 0.00, -0.00, -1.00, 911.7, 400.0)">H</text><text xml:space="preserve" font-family="Helvetica" font-size="35.0" fill="#000000" transform="matrix(1.00, 0.00, -0.00, -1.00, 939.7, 400.0)">E</text><text xml:space="preserve" font-family="Helvetica" font-size="35.0" fill="#000000" transform="matrix(1.00, 0.00, -0.00, -1.00, 965.9, 400.0)">R</text><image xlink:href="81D317A087C73FBE8229AA234D8AF55F.jpeg" width="578.00" height="769.00" transform="matrix(1.40, 0.00, -0.00, -1.40, 1114.0, 1080.0)"></image><text xml:space="preserve" font-family="Avenir-Book" font-size="121.0" fill="#000000" transform="matrix(1.00, 0.00, -0.00, -1.00, 76.0, 648.0)">S</text><text xml:space="preserve" font-family="Avenir-Book" font-size="121.0" fill="#000000" transform="matrix(1.00, 0.00, -0.00, -1.00, 149.3, 648.0)">A</text><text xml:space="preserve" font-family="Avenir-Book" font-size="121.0" fill="#000000" transform="matrix(1.00, 0.00, -0.00, -1.00, 232.3, 648.0)">V</text><text xml:space="preserve" font-family="Avenir-Book" font-size="121.0" fill="#000000" transform="matrix(1.00, 0.00, -0.00, -1.00, 305.7, 648.0)">A</text><text xml:space="preserve" font-family="Avenir-Book" font-size="121.0" fill="#000000" transform="matrix(1.00, 0.00, -0.00, -1.00, 394.7, 648.0)">N</text><text xml:space="preserve" font-family="Avenir-Book" font-size="121.0" fill="#000000" transform="matrix(1.00, 0.00, -0.00, -1.00, 494.9, 648.0)">N</text><text xml:space="preserve" font-family="Avenir-Book" font-size="121.0" fill="#000000" transform="matrix(1.00, 0.00, -0.00, -1.00, 595.1, 648.0)">A</text><text xml:space="preserve" font-family="Avenir-Book" font-size="121.0" fill="#000000" transform="matrix(1.00, 0.00, -0.00, -1.00, 684.1, 648.0)">H</text><text xml:space="preserve" font-family="Avenir-Book" font-size="121.0" fill="#000000" transform="matrix(1.00, 0.00, -0.00, -1.00, 777.6, 648.0)"> </text><text xml:space="preserve" font-family="Avenir-Book" font-size="121.0" fill="#000000" transform="matrix(1.00, 0.00, -0.00, -1.00, 817.2, 648.0)"> </text><text xml:space="preserve" font-family="Avenir-Book" font-size="121.0" fill="#000000" transform="matrix(1.00, 0.00, -0.00, -1.00, 76.0, 483.0)">M</text><text xml:space="preserve" font-family="Avenir-Book" font-size="121.0" fill="#000000" transform="matrix(1.00, 0.00, -0.00, -1.00, 189.7, 483.0)">O</text><text xml:space="preserve" font-family="Avenir-Book" font-size="121.0" fill="#000000" transform="matrix(1.00, 0.00, -0.00, -1.00, 296.7, 483.0)">N</text><text xml:space="preserve" font-family="Avenir-Book" font-size="121.0" fill="#000000" transform="matrix(1.00, 0.00, -0.00, -1.00, 396.9, 483.0)">T</text><text xml:space="preserve" font-family="Avenir-Book" font-size="121.0" fill="#000000" transform="matrix(1.00, 0.00, -0.00, -1.00, 472.4, 483.0)">G</text><text xml:space="preserve" font-family="Avenir-Book" font-size="121.0" fill="#000000" transform="matrix(1.00, 0.00, -0.00, -1.00, 572.6, 483.0)">O</text><text xml:space="preserve" font-family="Avenir-Book" font-size="121.0" fill="#000000" transform="matrix(1.00, 0.00, -0.00, -1.00, 679.5, 483.0)">M</text><text xml:space="preserve" font-family="Avenir-Book" font-size="121.0" fill="#000000" transform="matrix(1.00, 0.00, -0.00, -1.00, 793.3, 483.0)">E</text><text xml:space="preserve" font-family="Avenir-Book" font-size="121.0" fill="#000000" transform="matrix(1.00, 0.00, -0.00, -1.00, 871.1, 483.0)">R</text><text xml:space="preserve" font-family="Avenir-Book" font-size="121.0" fill="#000000" transform="matrix(1.00, 0.00, -0.00, -1.00, 947.3, 483.0)">Y</text></g></svg>